<svg version="1.2" xmlns="http://www.w3.org/2000/svg" viewBox="0 0 1080 1080" width="120" height="120"><defs><linearGradient id="P" gradientUnits="userSpaceOnUse"/><linearGradient id="g1" x2="1" href="#P" gradientTransform="matrix(0,1124.37,-1124.37,0,540,-16.18)"><stop stop-color="#ffc800"/><stop offset="1" stop-color="#dbb000"/></linearGradient></defs><style>.a{fill:url(#g1)}.b{fill:#010101}</style><path class="a" d="m0 0h1080v1080h-1080z"/><path fill-rule="evenodd" class="b" d="m83.5 471.1l120.2-44.9v57.9l175.1 140.4v-156.3l113-37.6v390.8h-114.4v-56.4l-170.8-150.6v204.1h-123zm273.6-47.8l-2.9 154.9-121.6-98.4zm0 421.3h165v-373.5l121.6-44.9v613.8h-121.6v-80.5h-165v80.5h-124.5v-363.4l124.5 105.7zm463.2-75.3v-27.5h-149.1v-257.6h253.3v136h-147.7v29h147.7v251.8h-253.3v-133.1zm-152-353.9c0-12.5-9.9-18.1-21.4-13.1l-125.2 51.4v-90.8l249.7-110c23.2-12.7 39.1-7.6 39.1-7.6l185.9 74.3v22.2l-183.8-73c-15.5-6.2-32.4 2.3-32.4 19v165.9h-111.9zm328.1-340.2v19.5l-60.3-35c-1-0.6-2.1-0.9-3.2-0.9-1.1 0-2.1 0.3-3.1 0.8-0.9 0.6-1.7 1.4-2.3 2.3-0.5 1-0.8 2.1-0.8 3.2v194l-112.9-44.2c-16-4.3-31.9 0-31.9 0l-112.2 50.7v-119.4l250.5-104.4c8-3.8 21 0 21 0z"/></svg>