<svg id="Layer_1" data-name="Layer 1" xmlns="http://www.w3.org/2000/svg" viewBox="0 0 1080 1080"><defs><linearGradient id="linear-gradient" x1="540" y1="-16.18" x2="540" y2="1108.19" gradientUnits="userSpaceOnUse"><stop offset="0" stop-color="#ffc800"/><stop offset="1" stop-color="#dbb000"/></linearGradient></defs><path style="fill:url(#linear-gradient)" d="M0 0h1080v1080H0z"/><path d="m83.53 471.1 120.15-44.87v57.9l175.16 140.42V468.21l112.91-37.64v390.85H377.39V765L206.58 614.41v204.11h-123Zm149.1 8.69 121.6 98.43 2.89-154.89Zm124.49 302.54L232.63 676.66V1040h124.49v-80.46h165V1040h121.62V426.23L522.15 471.1v373.48h-165Zm314.13-14.47V901h253.32V649.16H776.92v-29h147.65V484.13H671.25V741.8h149.1v27.5Zm-2.9-314.13H780.3V287.82c0-16.68 16.84-25.18 32.32-19l183.85 73v-22.2l-185.89-74.34s-15.93-5.06-39.09 7.6l-249.71 110v90.83L647 402.36c11.45-5 21.35.54 21.35 13Zm272.87-412s-13-3.82-21 0L669.8 146.12v119.43L782 214.88s15.92-4.34 31.84 0L926.74 259V65a6.25 6.25 0 0 1 9.39-5.4l60.34 35.08V75.19Z" style="fill:#010101"/></svg>