<svg version="1.2" xmlns="http://www.w3.org/2000/svg" viewBox="0 0 600 140" width="600" height="140"><style>.a{fill:#ffc800}.b{fill:#fff}</style><path fill-rule="evenodd" class="a" d="m4.3 61.3l15.6-5.9v7.6l22.8 18.2v-20.3l14.7-4.9v50.9h-14.9v-7.4l-22.2-19.6v26.6h-16zm35.6-6.2l-0.4 20.1-15.8-12.8zm0 54.9h21.5v-48.7l15.8-5.8v79.9h-15.8v-10.5h-21.5v10.5h-16.2v-47.3l16.2 13.8zm60.3-9.8v-3.6h-19.4v-33.6h33v17.7h-19.3v3.8h19.3v32.8h-33v-17.3zm-19.8-46.1c0-1.6-1.3-2.3-2.8-1.7l-16.3 6.7v-11.8l32.5-14.4c3-1.6 5.1-0.9 5.1-0.9l24.2 9.6v2.9l-23.9-9.5c-2-0.8-4.2 0.3-4.2 2.5v21.6h-14.6zm42.7-44.3v2.6l-7.8-4.6c-0.6-0.3-1.3 0.1-1.3 0.7v25.2l-14.7-5.7c-2-0.6-4.1 0-4.1 0l-14.6 6.6v-15.6l32.6-13.6c1-0.5 2.7 0 2.7 0z"/><path class="b" d="m147.6 23.2h15.6l33.3 40.7v-40.7h14.1v58.6h-15.6l-33.4-40.8v40.8h-14z"/><path fill-rule="evenodd" class="b" d="m233.7 23.2h33.4q6.1 0 10.5 4.3 4.3 4.3 4.3 10.4v29.1q0 6.1-4.3 10.4-4.4 4.4-10.5 4.4h-33.4q-6.2 0-10.5-4.4-4.3-4.3-4.3-10.4v-29.1q0-6.1 4.3-10.4 4.3-4.3 10.5-4.3zm4.4 12.5q-2.2 0-3.7 1.5-1.5 1.5-1.5 3.6v23.3q0 2.2 1.5 3.6 1.5 1.5 3.7 1.5h24.6q2.2 0 3.6-1.5 1.5-1.4 1.5-3.6v-23.3q0-2.1-1.5-3.6-1.4-1.5-3.6-1.5z"/><path fill-rule="evenodd" class="b" d="m291.2 23.2h48.2q6.2 0 10.5 4.3 4.3 4.3 4.3 10.4v10.1q0 5.2-3.1 9.2-3.1 3.9-8 5.1l13.2 19.5h-16l-12.8-19h-22.3v19h-14zm14 12.5v14.6h29.8q2.2 0 3.7-1.5 1.4-1.5 1.4-3.6v-4.4q0-2.1-1.4-3.6-1.5-1.5-3.7-1.5z"/><path fill-rule="evenodd" class="b" d="m395.1 23.2h14.1l32.3 58.6h-15.3l-6.2-11.8h-35.7l-6.2 11.8h-15.2zm7 13.1l-12.3 23.3h24.6z"/><path class="b" d="m460.2 23.2h32.9q6.2 0 10.5 4.3 4.3 4.3 4.3 10.4v4.8h-14v-1.9q-0.1-2.1-1.6-3.6-1.5-1.5-3.6-1.5h-24.4q-2.1 0-3.4 1.2-1.4 1.2-1.4 3.2v1.5q0 1.8 3.7 2.8 3.7 1.1 9.2 1.6 5.5 0.4 12 1.3 6.4 0.9 11.9 2.2 5.5 1.3 9.2 4.3 3.7 3 3.7 7.3v5.9q0 6.1-4.3 10.4-4.4 4.4-10.5 4.4h-34.2q-6.1 0-10.4-4.4-4.3-4.3-4.3-10.4v-4.8h14v1.9q0 2.2 1.5 3.6 1.5 1.5 3.7 1.5h25.7q2 0 3.4-1.2 1.3-1.2 1.3-3.2v-1.4q0-1.6-2.7-2.6-2.8-1-7.1-1.6-4.4-0.5-9.7-1-5.3-0.4-10.6-1.4-5.3-0.9-9.7-2.3-4.3-1.4-7.1-4.2-2.7-2.7-2.7-6.5v-5.9q0-6.1 4.3-10.4 4.3-4.3 10.4-4.3z"/><path class="b" d="m518.5 23.2h14v58.6h-14z"/><path class="b" d="m541.9 23.2h14.1v46.6h40.4v12h-54.5z"/><path class="b" d="m150.4 100.4h8.5q1.6 0 2.7 1.1 1.1 1.1 1.1 2.7v1.2h-3.6v-0.5q0-0.5-0.4-0.9-0.4-0.4-0.9-0.4h-6.4q-0.5 0-0.8 0.3-0.4 0.3-0.4 0.9v0.3q0 0.5 1 0.8 0.9 0.3 2.3 0.4 1.5 0.1 3.1 0.3 1.7 0.3 3.1 0.6 1.4 0.3 2.4 1.1 1 0.8 1 1.9v1.5q0 1.6-1.2 2.7-1.1 1.1-2.7 1.1h-8.8q-1.6 0-2.7-1.1-1.1-1.1-1.1-2.7v-1.2h3.6v0.5q0 0.5 0.4 0.9 0.4 0.4 0.9 0.4h6.7q0.5 0 0.9-0.3 0.3-0.3 0.3-0.8v-0.4q0-0.4-0.7-0.7-0.7-0.3-1.8-0.4-1.2-0.1-2.5-0.3-1.4-0.1-2.8-0.3-1.4-0.3-2.5-0.6-1.1-0.4-1.8-1.1-0.7-0.7-0.7-1.7v-1.5q0-1.6 1.1-2.7 1.1-1.1 2.7-1.1z"/><path fill-rule="evenodd" class="b" d="m169.3 100.4h8.6q1.6 0 2.8 1.1 1.1 1.1 1.1 2.7v7.5q0 1.6-1.1 2.7-1.2 1.1-2.8 1.1h-8.6q-1.6 0-2.7-1.1-1.1-1.1-1.1-2.7v-7.5q0-1.6 1.1-2.7 1.1-1.1 2.7-1.1zm1.1 3.2q-0.5 0-0.9 0.4-0.4 0.4-0.4 0.9v6.1q0 0.5 0.4 0.9 0.4 0.4 0.9 0.4h6.4q0.6 0 0.9-0.4 0.4-0.4 0.4-0.9v-6.1q0-0.5-0.4-0.9-0.3-0.4-0.9-0.4z"/><path class="b" d="m188 100.4h8.7q1.5 0 2.7 1.1 1.1 1.1 1.1 2.7v1.5h-3.7v-0.8q0-0.5-0.3-0.9-0.4-0.4-1-0.4h-6.4q-0.5 0-0.9 0.4-0.4 0.4-0.4 0.9v6.1q0 0.5 0.4 0.9 0.4 0.4 0.9 0.4h6.4q0.6 0 1-0.4 0.3-0.4 0.3-0.9v-0.8h3.7v1.5q0 1.6-1.1 2.7-1.2 1.1-2.7 1.1h-8.7q-1.6 0-2.7-1.1-1.1-1.1-1.1-2.7v-7.5q0-1.6 1.1-2.7 1.1-1.1 2.7-1.1z"/><path class="b" d="m202.9 111.8h3.7v3.7h-3.7z"/><path fill-rule="evenodd" class="b" d="m218.4 100.4h12.4q1.6 0 2.7 1.1 1.2 1.1 1.2 2.7v7.5q0 1.6-1.2 2.7-1.1 1.1-2.7 1.1h-12.4zm3.6 3.3v8.7h7.7q0.6 0 0.9-0.4 0.4-0.4 0.4-1v-6q0-0.5-0.4-0.9-0.3-0.4-0.9-0.4z"/><path class="b" d="m237.1 100.4h14.1v3.1h-10.5v2.9h9.9v3.1h-9.9v2.9h10.5v3.1h-14.1z"/><path class="b" d="m266.7 100.4h8.7q1.6 0 2.7 1.1 1.1 1.1 1.1 2.7v1.5h-3.6v-0.8q0-0.5-0.4-0.9-0.4-0.4-0.9-0.4h-6.4q-0.6 0-1 0.4-0.3 0.4-0.3 0.9v6.1q0 0.5 0.3 0.9 0.4 0.4 1 0.4h6.4q0.5 0 0.9-0.4 0.4-0.4 0.4-0.9v-0.8h3.6v1.5q0 1.6-1.1 2.7-1.1 1.1-2.7 1.1h-8.7q-1.5 0-2.7-1.1-1.1-1.1-1.1-2.7v-7.5q0-1.6 1.1-2.7 1.2-1.1 2.7-1.1z"/><path fill-rule="evenodd" class="b" d="m285.5 100.4h8.6q1.6 0 2.7 1.1 1.1 1.1 1.1 2.7v7.5q0 1.6-1.1 2.7-1.1 1.1-2.7 1.1h-8.6q-1.6 0-2.7-1.1-1.2-1.1-1.2-2.7v-7.5q0-1.6 1.2-2.7 1.1-1.1 2.7-1.1zm1.1 3.2q-0.6 0-0.9 0.4-0.4 0.4-0.4 0.9v6.1q0 0.5 0.4 0.9 0.3 0.4 0.9 0.4h6.4q0.5 0 0.9-0.4 0.4-0.4 0.4-0.9v-6.1q0-0.5-0.4-0.9-0.4-0.4-0.9-0.4z"/><path class="b" d="m300.3 100.4h4.1l8.6 10.5v-10.5h3.7v15.1h-4.1l-8.6-10.5v10.5h-3.7z"/><path class="b" d="m322.9 100.4h8.5q1.6 0 2.7 1.1 1.1 1.1 1.1 2.7v1.2h-3.6v-0.5q0-0.5-0.4-0.9-0.4-0.4-0.9-0.4h-6.4q-0.5 0-0.9 0.3-0.3 0.3-0.3 0.9v0.3q0 0.5 1 0.8 0.9 0.3 2.3 0.4 1.5 0.1 3.1 0.3 1.7 0.3 3.1 0.6 1.4 0.3 2.4 1.1 1 0.8 1 1.9v1.5q0 1.6-1.2 2.7-1.1 1.1-2.7 1.1h-8.8q-1.6 0-2.7-1.1-1.1-1.1-1.1-2.7v-1.2h3.6v0.5q0 0.5 0.4 0.9 0.4 0.4 0.9 0.4h6.7q0.5 0 0.9-0.3 0.3-0.3 0.3-0.8v-0.4q0-0.4-0.7-0.7-0.7-0.3-1.8-0.4-1.2-0.1-2.5-0.3-1.4-0.1-2.8-0.3-1.4-0.3-2.5-0.6-1.1-0.4-1.8-1.1-0.7-0.7-0.7-1.7v-1.5q0-1.6 1.1-2.7 1.1-1.1 2.7-1.1z"/><path class="b" d="m337.3 100.4h16.3v3.1h-6.4v12h-3.6v-12h-6.3z"/><path fill-rule="evenodd" class="b" d="m356 100.4h12.5q1.5 0 2.7 1.1 1.1 1.1 1.1 2.7v2.6q0 1.3-0.8 2.4-0.8 1-2.1 1.3l3.4 5h-4.1l-3.3-4.9h-5.8v4.9h-3.6zm3.6 3.3v3.8h7.7q0.6 0 1-0.4 0.3-0.4 0.3-1v-1.1q0-0.5-0.3-0.9-0.4-0.4-1-0.4z"/><path class="b" d="m374.8 100.4h3.6v10.6q0 0.5 0.4 0.9 0.4 0.4 0.9 0.4h6.4q0.6 0 0.9-0.4 0.4-0.4 0.4-0.9v-10.6h3.7v11.3q0 1.6-1.2 2.7-1.1 1.1-2.7 1.1h-8.6q-1.6 0-2.7-1.1-1.1-1.1-1.1-2.7z"/><path class="b" d="m397.3 100.4h8.7q1.5 0 2.7 1.1 1.1 1.1 1.1 2.7v1.5h-3.7v-0.8q0-0.5-0.3-0.9-0.4-0.4-1-0.4h-6.4q-0.5 0-0.9 0.4-0.4 0.4-0.4 0.9v6.1q0 0.5 0.4 0.9 0.4 0.4 0.9 0.4h6.4q0.6 0 1-0.4 0.3-0.4 0.3-0.9v-0.8h3.7v1.5q0 1.6-1.1 2.7-1.2 1.1-2.7 1.1h-8.7q-1.6 0-2.7-1.1-1.1-1.1-1.1-2.7v-7.5q0-1.6 1.1-2.7 1.1-1.1 2.7-1.1zm3.5 14.9h1.6l-0.6 1.8h1.5q0.7 0 1.2 0.5 0.5 0.5 0.5 1.3v1.3q0 0.7-0.5 1.2-0.5 0.5-1.2 0.5h-4.2v-1.5h3.7q0.2-0.1 0.4-0.2 0.1-0.1 0.1-0.3v-0.7q0-0.2-0.1-0.3-0.2-0.2-0.4-0.2h-3.1z"/><path fill-rule="evenodd" class="b" d="m419.1 100.4h3.6l8.4 15.1h-4l-1.6-3h-9.2l-1.6 3h-4zm-1.7-5.7h2.7q0.7 0 1.2 0.5 0.5 0.5 0.5 1.2v0.6q0 0.2 0.1 0.3 0.2 0.2 0.4 0.2h1.6q0.2 0 0.3-0.2 0.2-0.1 0.2-0.3v-2.3h1.7v2.6q0 0.7-0.5 1.2-0.5 0.5-1.2 0.5h-2.6q-0.8 0-1.2-0.5-0.5-0.5-0.5-1.2v-0.5q0-0.2-0.2-0.4-0.1-0.1-0.3-0.1h-1.6q-0.2 0-0.4 0.1-0.1 0.2-0.1 0.4v2.2h-1.8v-2.6q0-0.7 0.5-1.2 0.5-0.5 1.2-0.5zm3.5 9.1l-3.1 6.1h6.3z"/><path fill-rule="evenodd" class="b" d="m436.1 100.4h8.6q1.6 0 2.7 1.1 1.1 1.1 1.1 2.7v7.5q0 1.6-1.1 2.7-1.1 1.1-2.7 1.1h-8.6q-1.6 0-2.8-1.1-1.1-1.1-1.1-2.7v-7.5q0-1.6 1.1-2.7 1.2-1.1 2.8-1.1zm1.1 3.2q-0.6 0-1 0.4-0.3 0.4-0.3 0.9v6.1q0 0.5 0.3 0.9 0.4 0.4 1 0.4h6.4q0.5 0 0.9-0.4 0.4-0.4 0.4-0.9v-6.1q0-0.5-0.4-0.9-0.4-0.4-0.9-0.4z"/><path class="b" d="m464.1 100.4h8.7q1.5 0 2.7 1.1 1.1 1.1 1.1 2.7v1.5h-3.7v-0.8q0-0.5-0.3-0.9-0.4-0.4-1-0.4h-6.4q-0.5 0-0.9 0.4-0.4 0.4-0.4 0.9v6.1q0 0.5 0.4 0.9 0.4 0.4 0.9 0.4h6.4q0.6 0 1-0.4 0.3-0.4 0.3-0.9v-0.8h3.7v1.5q0 1.6-1.1 2.7-1.2 1.1-2.7 1.1h-8.7q-1.6 0-2.7-1.1-1.1-1.1-1.1-2.7v-7.5q0-1.6 1.1-2.7 1.1-1.1 2.7-1.1z"/><path class="b" d="m479 100.4h3.6v15.1h-3.6z"/><path class="b" d="m484.8 100.4h4l6.2 11.7 6.2-11.7h4l-8.4 15.1h-3.6z"/><path class="b" d="m507.1 100.4h3.6v15.1h-3.6z"/><path class="b" d="m513.2 100.4h3.6v12h10.5v3.1h-14.1z"/><path class="b" d="m529.7 111.8h3.7v3.7l-1.4 3.3h-1.5l0.9-3.3h-1.7z"/><path class="b" d="m549 100.4h8.5q1.6 0 2.7 1.1 1.1 1.1 1.1 2.7v1.2h-3.6v-0.5q0-0.5-0.4-0.9-0.4-0.4-0.9-0.4h-6.4q-0.5 0-0.9 0.3-0.3 0.3-0.3 0.9v0.3q0 0.5 0.9 0.8 1 0.3 2.4 0.4 1.5 0.1 3.1 0.3 1.7 0.3 3.1 0.6 1.4 0.3 2.4 1.1 0.9 0.8 0.9 1.9v1.5q0 1.6-1.1 2.7-1.1 1.1-2.7 1.1h-8.8q-1.6 0-2.7-1.1-1.1-1.1-1.1-2.7v-1.2h3.6v0.5q0 0.5 0.4 0.9 0.4 0.4 0.9 0.4h6.7q0.5 0 0.9-0.3 0.3-0.3 0.3-0.8v-0.4q0-0.4-0.7-0.7-0.7-0.3-1.8-0.4-1.2-0.1-2.5-0.3-1.4-0.1-2.8-0.3-1.4-0.3-2.5-0.6-1.1-0.4-1.8-1.1-0.7-0.7-0.7-1.7v-1.5q0-1.6 1.1-2.7 1.1-1.1 2.7-1.1z"/><path class="b" d="m564.1 111.8h3.7v3.7h-3.7z"/><path fill-rule="evenodd" class="b" d="m578.5 100.4h3.7l8.3 15.1h-3.9l-1.6-3h-9.3l-1.6 3h-3.9zm1.8 3.4l-3.2 6.1h6.4z"/><path class="b" d="m592.9 111.8h3.7v3.7h-3.7z"/></svg>